<svg xmlns="http://www.w3.org/2000/svg" xmlns:xlink="http://www.w3.org/1999/xlink" width="1366" zoomAndPan="magnify" viewBox="0 0 1024.5 576" height="768" preserveAspectRatio="xMidYMid meet" version="1.0"><defs><clipPath id="48d2988ccc"><path d="M 331.75 110.441406 L 691 110.441406 L 691 465.75 L 331.75 465.75 Z M 331.75 110.441406 " clip-rule="nonzero"/></clipPath></defs><g clip-path="url(#48d2988ccc)"><path fill="#000000" d="M 683.4375 307.816406 C 693.253906 297.988281 693.253906 282.058594 683.4375 272.234375 L 529.046875 117.707031 C 524.140625 112.792969 517.699219 110.335938 511.261719 110.335938 C 504.847656 110.335938 498.410156 112.792969 493.5 117.707031 L 339.113281 272.234375 C 329.296875 282.058594 329.296875 297.988281 339.113281 307.816406 C 348.929688 317.640625 364.84375 317.640625 374.683594 307.816406 L 511.261719 171.089844 L 647.863281 307.816406 C 657.703125 317.640625 673.621094 317.640625 683.4375 307.816406 Z M 493.5 268.269531 C 498.410156 263.359375 504.847656 260.902344 511.261719 260.902344 C 517.699219 260.902344 524.140625 263.359375 529.046875 268.269531 L 683.4375 422.777344 C 693.253906 432.625 693.253906 448.554688 683.4375 458.378906 C 673.621094 468.207031 657.703125 468.207031 647.863281 458.378906 L 511.261719 321.652344 L 374.683594 458.378906 C 364.84375 468.207031 348.929688 468.207031 339.113281 458.378906 C 329.296875 448.554688 329.296875 432.625 339.113281 422.777344 Z M 493.5 268.269531 " fill-opacity="1" fill-rule="nonzero"/></g></svg>